<svg width="20" height="20" viewBox="0 0 20 20" fill="none" xmlns="http://www.w3.org/2000/svg">
<g clip-path="url(#clip0_528_517)">
<path d="M10.8331 1.70917V0.833333C10.8331 0.61232 10.7453 0.400358 10.5891 0.244078C10.4328 0.0877974 10.2208 0 9.9998 0C9.77879 0 9.56683 0.0877974 9.41055 0.244078C9.25426 0.400358 9.16647 0.61232 9.16647 0.833333V1.70917C7.48877 1.85957 5.88515 2.47017 4.53229 3.47368C3.17943 4.4772 2.12982 5.83468 1.49912 7.39657C0.86842 8.95845 0.681099 10.6641 0.957796 12.3257C1.23449 13.9872 1.96447 15.5401 3.0673 16.8133C2.63178 17.0288 2.26783 17.3656 2.01929 17.7831C1.77075 18.2006 1.64823 18.6811 1.66647 19.1667C1.66647 19.3877 1.75426 19.5996 1.91055 19.7559C2.06683 19.9122 2.27879 20 2.4998 20C2.72081 20 2.93278 19.9122 3.08906 19.7559C3.24534 19.5996 3.33313 19.3877 3.33313 19.1667C3.32621 18.9098 3.41842 18.6601 3.59065 18.4694C3.76288 18.2788 4.0019 18.1617 4.25813 18.1425C4.31545 18.1316 4.37136 18.1143 4.4248 18.0908C6.02108 19.3289 7.98383 20.0009 10.004 20.0009C12.0241 20.0009 13.9869 19.3289 15.5831 18.0908C15.6319 18.1133 15.6827 18.1312 15.7348 18.1442C15.9919 18.1617 16.2324 18.2778 16.406 18.4683C16.5795 18.6588 16.6729 18.909 16.6665 19.1667C16.6665 19.3877 16.7543 19.5996 16.9105 19.7559C17.0668 19.9122 17.2788 20 17.4998 20C17.7208 20 17.9328 19.9122 18.0891 19.7559C18.2453 19.5996 18.3331 19.3877 18.3331 19.1667C18.3514 18.6811 18.2289 18.2006 17.9803 17.7831C17.7318 17.3656 17.3678 17.0288 16.9323 16.8133C18.0351 15.5401 18.7651 13.9872 19.0418 12.3257C19.3185 10.6641 19.1312 8.95845 18.5005 7.39657C17.8698 5.83468 16.8202 4.4772 15.4673 3.47368C14.1144 2.47017 12.5108 1.85957 10.8331 1.70917ZM2.4998 10.8333C2.4998 9.34997 2.93967 7.89993 3.76378 6.66656C4.58789 5.43319 5.75923 4.47189 7.12968 3.90424C8.50012 3.33658 10.0081 3.18805 11.463 3.47744C12.9178 3.76683 14.2542 4.48114 15.3031 5.53003C16.352 6.57893 17.0663 7.9153 17.3557 9.37016C17.6451 10.825 17.4966 12.333 16.9289 13.7035C16.3612 15.0739 15.3999 16.2452 14.1666 17.0694C12.9332 17.8935 11.4832 18.3333 9.9998 18.3333C8.01142 18.3309 6.10518 17.54 4.69918 16.134C3.29318 14.728 2.50223 12.8217 2.4998 10.8333Z" fill="white"/>
<path d="M16.0125 -3.84641e-05C15.7915 -3.84641e-05 15.5796 0.0877589 15.4233 0.244039C15.267 0.40032 15.1792 0.612281 15.1792 0.833295C15.1792 1.05431 15.267 1.26627 15.4233 1.42255C15.5796 1.57883 15.7915 1.66663 16.0125 1.66663C16.3031 1.64454 16.5952 1.68153 16.8711 1.77536C17.147 1.8692 17.401 2.01794 17.6179 2.21261C17.8348 2.40729 18.01 2.64387 18.1329 2.90808C18.2559 3.1723 18.3241 3.45868 18.3334 3.74996C18.3334 3.97098 18.4212 4.18294 18.5774 4.33922C18.7337 4.4955 18.9457 4.58329 19.1667 4.58329C19.3877 4.58329 19.5997 4.4955 19.756 4.33922C19.9122 4.18294 20 3.97098 20 3.74996C19.9894 3.24037 19.8772 2.73803 19.67 2.27232C19.4629 1.80661 19.165 1.38688 18.7937 1.0377C18.4224 0.688514 17.9852 0.416884 17.5076 0.238698C17.0301 0.0605129 16.5218 -0.0206488 16.0125 -3.84641e-05Z" fill="white"/>
<path d="M1.66667 3.74996C1.67596 3.45868 1.74414 3.1723 1.8671 2.90808C1.99006 2.64387 2.16526 2.40729 2.38213 2.21261C2.59899 2.01794 2.85304 1.8692 3.12895 1.77536C3.40486 1.68153 3.69691 1.64454 3.9875 1.66663C4.20851 1.66663 4.42048 1.57883 4.57676 1.42255C4.73304 1.26627 4.82083 1.05431 4.82083 0.833295C4.82083 0.612281 4.73304 0.40032 4.57676 0.244039C4.42048 0.0877589 4.20851 -3.84641e-05 3.9875 -3.84641e-05C3.47822 -0.0206488 2.96994 0.0605129 2.4924 0.238698C2.01486 0.416884 1.57765 0.688514 1.20636 1.0377C0.835056 1.38688 0.537122 1.80661 0.329984 2.27232C0.122846 2.73803 0.0106635 3.24037 0 3.74996C0 3.97098 0.0877974 4.18294 0.244078 4.33922C0.400358 4.4955 0.61232 4.58329 0.833333 4.58329C1.05435 4.58329 1.26631 4.4955 1.42259 4.33922C1.57887 4.18294 1.66667 3.97098 1.66667 3.74996Z" fill="white"/>
<path d="M10.8332 9.655V5.83333C10.8332 5.61232 10.7454 5.40036 10.5891 5.24408C10.4328 5.0878 10.2209 5 9.99984 5C9.77882 5 9.56686 5.0878 9.41058 5.24408C9.2543 5.40036 9.1665 5.61232 9.1665 5.83333V10C9.16655 10.221 9.25438 10.4329 9.41067 10.5892L11.9107 13.0892C12.0678 13.241 12.2783 13.325 12.4968 13.3231C12.7153 13.3212 12.9243 13.2335 13.0789 13.079C13.2334 12.9245 13.321 12.7155 13.3229 12.497C13.3248 12.2785 13.2408 12.068 13.089 11.9108L10.8332 9.655Z" fill="white"/>
</g>
<defs>
<clipPath id="clip0_528_517">
<rect width="20" height="20" fill="white"/>
</clipPath>
</defs>
</svg>
