<svg width="15" height="15" viewBox="0 0 15 15" fill="none" xmlns="http://www.w3.org/2000/svg">
<g clip-path="url(#clip0_525_381)">
<path d="M4.37521 15C4.29295 15.0005 4.21141 14.9847 4.13526 14.9536C4.05912 14.9225 3.98986 14.8767 3.93146 14.8187C3.87288 14.7606 3.82638 14.6915 3.79465 14.6154C3.76292 14.5392 3.74658 14.4575 3.74658 14.375C3.74658 14.2925 3.76292 14.2108 3.79465 14.1346C3.82638 14.0585 3.87288 13.9893 3.93146 13.9312L9.03771 8.82499C9.38883 8.47343 9.58606 7.99687 9.58606 7.49999C9.58606 7.00312 9.38883 6.52656 9.03771 6.17499L3.93146 1.06874C3.81377 0.951054 3.74765 0.791432 3.74765 0.624994C3.74765 0.458555 3.81377 0.298934 3.93146 0.181244C4.04915 0.063554 4.20877 -0.00256348 4.37521 -0.00256348C4.54164 -0.00256348 4.70127 0.063554 4.81896 0.181244L9.92521 5.28749C10.2162 5.57778 10.4471 5.92263 10.6047 6.30228C10.7622 6.68194 10.8433 7.08895 10.8433 7.49999C10.8433 7.91104 10.7622 8.31805 10.6047 8.6977C10.4471 9.07736 10.2162 9.42221 9.92521 9.71249L4.81896 14.8187C4.76056 14.8767 4.6913 14.9225 4.61515 14.9536C4.539 14.9847 4.45746 15.0005 4.37521 15Z" fill="white"/>
</g>
<defs>
<clipPath id="clip0_525_381">
<rect width="15" height="15" fill="white"/>
</clipPath>
</defs>
</svg>
