<svg width="25" height="25" viewBox="0 0 25 25" fill="none" xmlns="http://www.w3.org/2000/svg">
<g clip-path="url(#clip0_429_368)">
<path d="M7.29167 22.9167H5.20833C4.37953 22.9167 3.58468 22.5874 2.99863 22.0014C2.41257 21.4153 2.08333 20.6205 2.08333 19.7917V5.20833C2.08333 4.37953 2.41257 3.58468 2.99863 2.99862C3.58468 2.41257 4.37953 2.08333 5.20833 2.08333H7.29167C7.56793 2.08333 7.83289 1.97359 8.02824 1.77824C8.22359 1.58289 8.33333 1.31793 8.33333 1.04167C8.33333 0.765399 8.22359 0.500448 8.02824 0.305097C7.83289 0.109747 7.56793 0 7.29167 0L5.20833 0C3.82751 0.00165402 2.50371 0.550919 1.52731 1.52731C0.550919 2.50371 0.00165402 3.82751 0 5.20833L0 19.7917C0.00165402 21.1725 0.550919 22.4963 1.52731 23.4727C2.50371 24.4491 3.82751 24.9983 5.20833 25H7.29167C7.56793 25 7.83289 24.8903 8.02824 24.6949C8.22359 24.4996 8.33333 24.2346 8.33333 23.9583C8.33333 23.6821 8.22359 23.4171 8.02824 23.2218C7.83289 23.0264 7.56793 22.9167 7.29167 22.9167Z" fill="#4CAF50"/>
<path d="M23.9582 11.4583L7.52382 11.4917C7.61518 11.322 7.72944 11.1656 7.8634 11.0271L11.904 6.98646C12.0035 6.89037 12.0829 6.77543 12.1375 6.64834C12.1921 6.52125 12.2208 6.38456 12.222 6.24625C12.2232 6.10794 12.1968 5.97077 12.1445 5.84276C12.0921 5.71474 12.0147 5.59844 11.9169 5.50063C11.8191 5.40283 11.7028 5.32548 11.5748 5.2731C11.4468 5.22073 11.3096 5.19437 11.1713 5.19557C11.033 5.19677 10.8963 5.22551 10.7692 5.2801C10.6421 5.3347 10.5272 5.41405 10.4311 5.51354L6.3884 9.55417C5.60727 10.3355 5.16846 11.3951 5.16846 12.5C5.16846 13.6049 5.60727 14.6645 6.3884 15.4458L10.429 19.4865C10.5251 19.5859 10.6401 19.6653 10.7671 19.7199C10.8942 19.7745 11.0309 19.8032 11.1692 19.8044C11.3075 19.8056 11.4447 19.7793 11.5727 19.7269C11.7007 19.6745 11.817 19.5972 11.9149 19.4994C12.0127 19.4016 12.09 19.2853 12.1424 19.1572C12.1948 19.0292 12.2211 18.8921 12.2199 18.7537C12.2187 18.6154 12.19 18.4787 12.1354 18.3517C12.0808 18.2246 12.0014 18.1096 11.9019 18.0135L7.86132 13.9729C7.74474 13.8529 7.64297 13.7193 7.55819 13.575L23.9582 13.5417C24.2345 13.5417 24.4994 13.4319 24.6948 13.2366C24.8901 13.0412 24.9999 12.7763 24.9999 12.5C24.9999 12.2237 24.8901 11.9588 24.6948 11.7634C24.4994 11.5681 24.2345 11.4583 23.9582 11.4583Z" fill="#4CAF50"/>
</g>
<defs>
<clipPath id="clip0_429_368">
<rect width="25" height="25" fill="white"/>
</clipPath>
</defs>
</svg>
