<svg width="25" height="25" viewBox="0 0 25 25" fill="none" xmlns="http://www.w3.org/2000/svg">
<g clip-path="url(#clip0_425_84)">
<path d="M19.7917 1.04167H5.20833C3.82751 1.04332 2.50371 1.59259 1.52731 2.56898C0.550919 3.54537 0.00165402 4.86917 0 6.25L0 18.75C0.00165402 20.1308 0.550919 21.4546 1.52731 22.431C2.50371 23.4074 3.82751 23.9567 5.20833 23.9583H19.7917C21.1725 23.9567 22.4963 23.4074 23.4727 22.431C24.4491 21.4546 24.9983 20.1308 25 18.75V6.25C24.9983 4.86917 24.4491 3.54537 23.4727 2.56898C22.4963 1.59259 21.1725 1.04332 19.7917 1.04167ZM5.20833 3.125H19.7917C20.4154 3.12623 21.0245 3.31408 21.5406 3.66438C22.0567 4.01468 22.4561 4.5114 22.6875 5.09063L14.7104 13.0688C14.1234 13.6535 13.3286 13.9817 12.5 13.9817C11.6714 13.9817 10.8766 13.6535 10.2896 13.0688L2.3125 5.09063C2.5439 4.5114 2.94335 4.01468 3.45942 3.66438C3.9755 3.31408 4.5846 3.12623 5.20833 3.125ZM19.7917 21.875H5.20833C4.37953 21.875 3.58468 21.5458 2.99862 20.9597C2.41257 20.3737 2.08333 19.5788 2.08333 18.75V7.8125L8.81667 14.5417C9.7944 15.5169 11.119 16.0646 12.5 16.0646C13.881 16.0646 15.2056 15.5169 16.1833 14.5417L22.9167 7.8125V18.75C22.9167 19.5788 22.5874 20.3737 22.0014 20.9597C21.4153 21.5458 20.6205 21.875 19.7917 21.875Z" fill="black"/>
</g>
<defs>
<clipPath id="clip0_425_84">
<rect width="25" height="25" fill="white"/>
</clipPath>
</defs>
</svg>
