<svg width="36" height="36" viewBox="0 0 36 36" fill="none" xmlns="http://www.w3.org/2000/svg">
<path d="M18 3.243C22.806 3.243 23.376 3.261 25.2735 3.348C27.2355 3.438 29.256 3.885 30.6855 5.3145C32.1285 6.7575 32.562 8.7585 32.652 10.7265C32.739 12.624 32.757 13.194 32.757 18C32.757 22.806 32.739 23.376 32.652 25.2735C32.5635 27.225 32.106 29.265 30.6855 30.6855C29.2425 32.1285 27.243 32.562 25.2735 32.652C23.376 32.739 22.806 32.757 18 32.757C13.194 32.757 12.624 32.739 10.7265 32.652C8.79 32.5635 6.723 32.0955 5.3145 30.6855C3.879 29.25 3.438 27.2295 3.348 25.2735C3.261 23.376 3.243 22.806 3.243 18C3.243 13.194 3.261 12.624 3.348 10.7265C3.4365 8.7825 3.8985 6.7305 5.3145 5.3145C6.7545 3.8745 8.763 3.438 10.7265 3.348C12.624 3.261 13.194 3.243 18 3.243ZM18 0C13.1115 0 12.498 0.021 10.578 0.108C7.7955 0.2355 5.0325 1.0095 3.021 3.021C1.002 5.04 0.2355 7.797 0.108 10.578C0.021 12.498 0 13.1115 0 18C0 22.8885 0.021 23.502 0.108 25.422C0.2355 28.2015 1.0125 30.972 3.021 32.979C5.0385 34.9965 7.8 35.7645 10.578 35.892C12.498 35.979 13.1115 36 18 36C22.8885 36 23.502 35.979 25.422 35.892C28.203 35.7645 30.969 34.989 32.979 32.979C34.9995 30.9585 35.7645 28.203 35.892 25.422C35.979 23.502 36 22.8885 36 18C36 13.1115 35.979 12.498 35.892 10.578C35.7645 7.7955 34.989 5.031 32.979 3.021C30.9645 1.0065 28.1955 0.234 25.422 0.108C23.502 0.021 22.8885 0 18 0Z" fill="#5B38AD"/>
<path d="M17.9998 8.75699C12.8953 8.75699 8.75684 12.8955 8.75684 18C8.75684 23.1045 12.8953 27.243 17.9998 27.243C23.1043 27.243 27.2428 23.1045 27.2428 18C27.2428 12.8955 23.1043 8.75699 17.9998 8.75699ZM17.9998 24C14.6863 24 11.9998 21.3135 11.9998 18C11.9998 14.6865 14.6863 12 17.9998 12C21.3133 12 23.9998 14.6865 23.9998 18C23.9998 21.3135 21.3133 24 17.9998 24Z" fill="#5B38AD"/>
<path d="M27.6092 10.551C28.8022 10.551 29.7692 9.58392 29.7692 8.39099C29.7692 7.19805 28.8022 6.23099 27.6092 6.23099C26.4163 6.23099 25.4492 7.19805 25.4492 8.39099C25.4492 9.58392 26.4163 10.551 27.6092 10.551Z" fill="#5B38AD"/>
</svg>
