<svg width="25" height="25" viewBox="0 0 25 25" fill="none" xmlns="http://www.w3.org/2000/svg">
<g clip-path="url(#clip0_102_11)">
<path d="M19.7917 8.775V7.29167C19.7917 5.3578 19.0235 3.50313 17.656 2.13568C16.2885 0.768227 14.4339 0 12.5 0C10.5661 0 8.71148 0.768227 7.34402 2.13568C5.97657 3.50313 5.20834 5.3578 5.20834 7.29167V8.775C4.28059 9.1799 3.49094 9.84638 2.93595 10.6929C2.38095 11.5395 2.08468 12.5294 2.08334 13.5417V19.7917C2.085 21.1725 2.63426 22.4963 3.61066 23.4727C4.58705 24.4491 5.91085 24.9983 7.29168 25H17.7083C19.0892 24.9983 20.413 24.4491 21.3894 23.4727C22.3658 22.4963 22.915 21.1725 22.9167 19.7917V13.5417C22.9153 12.5294 22.6191 11.5395 22.0641 10.6929C21.5091 9.84638 20.7194 9.1799 19.7917 8.775ZM7.29168 7.29167C7.29168 5.91033 7.84041 4.58557 8.81716 3.60882C9.79391 2.63207 11.1187 2.08333 12.5 2.08333C13.8813 2.08333 15.2061 2.63207 16.1829 3.60882C17.1596 4.58557 17.7083 5.91033 17.7083 7.29167V8.33333H7.29168V7.29167ZM20.8333 19.7917C20.8333 20.6205 20.5041 21.4153 19.9181 22.0014C19.332 22.5874 18.5371 22.9167 17.7083 22.9167H7.29168C6.46288 22.9167 5.66802 22.5874 5.08197 22.0014C4.49592 21.4153 4.16668 20.6205 4.16668 19.7917V13.5417C4.16668 12.7129 4.49592 11.918 5.08197 11.332C5.66802 10.7459 6.46288 10.4167 7.29168 10.4167H17.7083C18.5371 10.4167 19.332 10.7459 19.9181 11.332C20.5041 11.918 20.8333 12.7129 20.8333 13.5417V19.7917Z" fill="#9E9E9E"/>
<path d="M12.5 14.5833C12.2237 14.5833 11.9588 14.6931 11.7634 14.8884C11.5681 15.0838 11.4583 15.3487 11.4583 15.625V17.7083C11.4583 17.9846 11.5681 18.2495 11.7634 18.4449C11.9588 18.6402 12.2237 18.75 12.5 18.75C12.7763 18.75 13.0412 18.6402 13.2366 18.4449C13.4319 18.2495 13.5417 17.9846 13.5417 17.7083V15.625C13.5417 15.3487 13.4319 15.0838 13.2366 14.8884C13.0412 14.6931 12.7763 14.5833 12.5 14.5833Z" fill="#9E9E9E"/>
</g>
<defs>
<clipPath id="clip0_102_11">
<rect width="25" height="25" fill="white"/>
</clipPath>
</defs>
</svg>
