<svg width="25" height="25" viewBox="0 0 25 25" fill="none" xmlns="http://www.w3.org/2000/svg">
<g clip-path="url(#clip0_423_9)">
<path d="M13.6299 25C17.4754 25 21.0021 23.2518 23.3391 20.3723C24.7194 18.6716 23.2142 16.1867 21.0808 16.593C17.0599 17.3587 13.3527 14.285 13.3527 10.2066C13.3527 7.84219 14.6251 5.7002 16.6454 4.55059C18.5372 3.47393 18.0613 0.605859 15.9119 0.208838C15.1591 0.0700267 14.3953 0.00012482 13.6299 0C6.72754 0 1.12988 5.59448 1.12988 12.5C1.12988 19.4023 6.72441 25 13.6299 25ZM13.6299 2.34375C14.2639 2.34375 14.8842 2.40239 15.4861 2.51357C12.8123 4.0352 11.0089 6.91016 11.0089 10.2066C11.0089 15.7656 16.0695 19.9332 21.5193 18.8953C19.6572 21.1896 16.815 22.6562 13.6299 22.6562C8.02075 22.6562 3.47363 18.1091 3.47363 12.5C3.47363 6.89087 8.02075 2.34375 13.6299 2.34375Z" fill="black"/>
</g>
<defs>
<clipPath id="clip0_423_9">
<rect width="25" height="25" fill="white"/>
</clipPath>
</defs>
</svg>
