<svg width="10" height="10" viewBox="0 0 10 10" fill="none" xmlns="http://www.w3.org/2000/svg">
<path d="M9.57617 0.789062C10.0039 1.21621 10.0039 1.90879 9.57617 2.33594L8.99023 2.92383L7.07617 1.01016L7.66406 0.423047C8.0918 -0.00416974 8.7832 -0.00416974 9.21094 0.423047L9.57617 0.789062ZM3.36719 4.7207L6.63477 1.45195L8.54883 3.36523L5.2793 6.63281C5.16016 6.7539 5.01367 6.84375 4.85156 6.89843L3.11719 7.47656C2.93164 7.53125 2.76367 7.48828 2.63672 7.3457C2.51172 7.23632 2.46875 7.05078 2.52344 6.88281L3.10156 5.14844C3.15625 4.98633 3.24609 4.83984 3.36719 4.7207ZM3.75 1.23242C4.0957 1.23242 4.375 1.52988 4.375 1.85742C4.375 2.2207 4.0957 2.48242 3.75 2.48242H1.875C1.52988 2.48242 1.25 2.7793 1.25 3.10742V8.125C1.25 8.4707 1.52988 8.75 1.875 8.75H6.875C7.2207 8.75 7.5 8.4707 7.5 8.125V6.23242C7.5 5.90429 7.7793 5.60742 8.125 5.60742C8.4707 5.60742 8.75 5.90429 8.75 6.23242V8.125C8.75 9.16015 7.91016 10 6.875 10H1.875C0.839453 10 0 9.16015 0 8.125V3.10742C0 2.07227 0.839453 1.23242 1.875 1.23242H3.75Z" fill="white"/>
</svg>
