<svg width="12" height="12" viewBox="0 0 12 12" fill="none" xmlns="http://www.w3.org/2000/svg">
<path d="M11.4914 0.946875C12.0047 1.45945 12.0047 2.29055 11.4914 2.80312L10.7883 3.50859L8.49141 1.21219L9.19687 0.507656C9.71016 -0.00500369 10.5398 -0.00500369 11.0531 0.507656L11.4914 0.946875ZM4.04062 5.66484L7.96172 1.74234L10.2586 4.03828L6.33516 7.95937C6.19219 8.10468 6.01641 8.2125 5.82187 8.27812L3.74062 8.97187C3.51797 9.0375 3.31641 8.98593 3.16406 8.81484C3.01406 8.68359 2.9625 8.46093 3.02812 8.25937L3.72187 6.17812C3.7875 5.98359 3.89531 5.80781 4.04062 5.66484ZM4.5 1.47891C4.91484 1.47891 5.25 1.83586 5.25 2.22891C5.25 2.66484 4.91484 2.9789 4.5 2.9789H2.25C1.83586 2.9789 1.5 3.33516 1.5 3.7289V9.75C1.5 10.1648 1.83586 10.5 2.25 10.5H8.25C8.66484 10.5 9 10.1648 9 9.75V7.4789C9 7.08515 9.33516 6.7289 9.75 6.7289C10.1648 6.7289 10.5 7.08515 10.5 7.4789V9.75C10.5 10.9922 9.49219 12 8.25 12H2.25C1.00734 12 0 10.9922 0 9.75V3.7289C0 2.48672 1.00734 1.47891 2.25 1.47891H4.5Z" fill="#5B38AD"/>
</svg>
