<svg width="10" height="10" viewBox="0 0 10 10" fill="none" xmlns="http://www.w3.org/2000/svg">
<g clip-path="url(#clip0_140_30)">
<path d="M8.53834 3.32041L4.56417 0.406248C4.25376 0.17895 3.88648 0.0420448 3.50303 0.0107076C3.11958 -0.0206297 2.73494 0.0548251 2.39175 0.228708C2.04855 0.402591 1.76021 0.66811 1.55869 0.995834C1.35716 1.32356 1.25032 1.70069 1.25 2.08541V7.91667C1.2494 8.30177 1.35569 8.67949 1.55702 9.00777C1.75836 9.33605 2.04685 9.60203 2.39037 9.77608C2.7339 9.95013 3.11899 10.0254 3.50278 9.99362C3.88657 9.96179 4.254 9.82409 4.56417 9.59583L8.53834 6.68166C8.80204 6.48814 9.01646 6.23525 9.16426 5.94346C9.31206 5.65167 9.38908 5.32917 9.38908 5.00208C9.38908 4.67499 9.31206 4.3525 9.16426 4.0607C9.01646 3.76891 8.80204 3.51602 8.53834 3.3225V3.32041Z" fill="white"/>
</g>
<defs>
<clipPath id="clip0_140_30">
<rect width="10" height="10" fill="white"/>
</clipPath>
</defs>
</svg>
