<svg width="25" height="25" viewBox="0 0 25 25" fill="none" xmlns="http://www.w3.org/2000/svg">
<g clip-path="url(#clip0_548_178)">
<path d="M0 24.9583V17.6667C0.00275714 15.1811 0.991363 12.7982 2.74892 11.0406C4.50648 9.28304 6.88944 8.29443 9.375 8.29167H14.4063V6.63959C14.4063 6.22761 14.5286 5.82491 14.7575 5.48239C14.9864 5.13987 15.3118 4.87291 15.6924 4.71526C16.073 4.55762 16.4918 4.51636 16.8959 4.59671C17.3 4.67706 17.6711 4.8754 17.9625 5.16667L24.0875 11.2906C24.6733 11.8767 25.0025 12.6714 25.0025 13.5C25.0025 14.3286 24.6733 15.1234 24.0875 15.7094L17.9625 21.8333C17.6711 22.1246 17.3 22.323 16.8959 22.4033C16.4918 22.4837 16.073 22.4424 15.6924 22.2848C15.3118 22.1271 14.9864 21.8602 14.7575 21.5176C14.5286 21.1751 14.4063 20.7724 14.4063 20.3604V18.7083H8.33333C6.67624 18.71 5.08749 19.369 3.91574 20.5408C2.744 21.7125 2.08499 23.3012 2.08333 24.9583C2.08333 25.2346 1.97359 25.4996 1.77824 25.6949C1.58289 25.8903 1.31793 26 1.04167 26C0.7654 26 0.500448 25.8903 0.305097 25.6949C0.109747 25.4996 0 25.2346 0 24.9583ZM16.4896 9.33334C16.4896 9.60961 16.3798 9.87456 16.1845 10.0699C15.9891 10.2653 15.7242 10.375 15.4479 10.375H9.375C7.44181 10.3772 5.58842 11.1461 4.22145 12.5131C2.85447 13.8801 2.08554 15.7335 2.08333 17.6667V19.4521C2.86413 18.5635 3.82551 17.8517 4.90328 17.3642C5.98106 16.8766 7.15043 16.6247 8.33333 16.625H15.4479C15.7242 16.625 15.9891 16.7348 16.1845 16.9301C16.3798 17.1255 16.4896 17.3904 16.4896 17.6667V20.3604L22.6135 14.2365C22.8088 14.0411 22.9185 13.7762 22.9185 13.5C22.9185 13.2238 22.8088 12.9589 22.6135 12.7635L16.4896 6.63959V9.33334Z" fill="white"/>
</g>
<defs>
<clipPath id="clip0_548_178">
<rect width="25" height="25" fill="white"/>
</clipPath>
</defs>
</svg>
