<svg width="25" height="25" viewBox="0 0 25 25" fill="none" xmlns="http://www.w3.org/2000/svg">
<path d="M11.9542 15.625C11.6779 15.625 11.4129 15.7347 11.2176 15.9301C11.0222 16.1254 10.9125 16.3904 10.9125 16.6667V19.7917C10.9125 20.6205 10.5833 21.4153 9.99721 22.0014C9.41116 22.5874 8.6163 22.9167 7.7875 22.9167H5.20833C4.37953 22.9167 3.58468 22.5874 2.99862 22.0014C2.41257 21.4153 2.08333 20.6205 2.08333 19.7917V5.20833C2.08333 4.37953 2.41257 3.58468 2.99862 2.99862C3.58468 2.41257 4.37953 2.08333 5.20833 2.08333H7.7875C8.6163 2.08333 9.41116 2.41257 9.99721 2.99862C10.5833 3.58468 10.9125 4.37953 10.9125 5.20833V8.33333C10.9125 8.6096 11.0222 8.87455 11.2176 9.0699C11.4129 9.26525 11.6779 9.375 11.9542 9.375C12.2304 9.375 12.4954 9.26525 12.6907 9.0699C12.8861 8.87455 12.9958 8.6096 12.9958 8.33333V5.20833C12.9942 3.82751 12.4449 2.50371 11.4685 1.52731C10.4921 0.550919 9.16833 0.00165402 7.7875 0H5.20833C3.82751 0.00165402 2.50371 0.550919 1.52731 1.52731C0.550919 2.50371 0.00165402 3.82751 0 5.20833L0 19.7917C0.00165402 21.1725 0.550919 22.4963 1.52731 23.4727C2.50371 24.4491 3.82751 24.9983 5.20833 25H7.7875C9.16833 24.9983 10.4921 24.4491 11.4685 23.4727C12.4449 22.4963 12.9942 21.1725 12.9958 19.7917V16.6667C12.9958 16.3904 12.8861 16.1254 12.6907 15.9301C12.4954 15.7347 12.2304 15.625 11.9542 15.625Z" fill="#D32F2F"/>
<path d="M23.82 10.2906L19.0429 5.51354C18.9468 5.41405 18.8318 5.3347 18.7048 5.2801C18.5777 5.22551 18.441 5.19677 18.3027 5.19557C18.1644 5.19437 18.0272 5.22073 17.8992 5.2731C17.7712 5.32548 17.6548 5.40283 17.557 5.50063C17.4592 5.59844 17.3819 5.71474 17.3295 5.84276C17.2771 5.97077 17.2508 6.10794 17.252 6.24625C17.2532 6.38456 17.2819 6.52125 17.3365 6.64834C17.3911 6.77543 17.4705 6.89037 17.57 6.98646L22.0106 11.4271L6.25016 11.4583C5.9739 11.4583 5.70894 11.5681 5.51359 11.7634C5.31824 11.9588 5.2085 12.2237 5.2085 12.5C5.2085 12.7763 5.31824 13.0412 5.51359 13.2366C5.70894 13.4319 5.9739 13.5417 6.25016 13.5417L22.071 13.5104L17.5679 18.0135C17.4684 18.1096 17.389 18.2246 17.3344 18.3517C17.2798 18.4787 17.2511 18.6154 17.2499 18.7537C17.2487 18.8921 17.2751 19.0292 17.3274 19.1572C17.3798 19.2853 17.4572 19.4016 17.555 19.4994C17.6528 19.5972 17.7691 19.6745 17.8971 19.7269C18.0251 19.7793 18.1623 19.8056 18.3006 19.8044C18.4389 19.8032 18.5756 19.7745 18.7027 19.7199C18.8298 19.6653 18.9447 19.5859 19.0408 19.4865L23.8179 14.7094C24.404 14.1236 24.7335 13.3291 24.7339 12.5004C24.7343 11.6718 24.4055 10.8769 23.82 10.2906Z" fill="#D32F2F"/>
</svg>
