<svg width="25" height="25" viewBox="0 0 25 25" fill="none" xmlns="http://www.w3.org/2000/svg">
<g clip-path="url(#clip0_425_72)">
<path d="M24.829 9.16042C24.6159 8.48219 24.1902 7.89053 23.6149 7.47295C23.0395 7.05537 22.3451 6.83403 21.6342 6.84167H17.0832L15.7009 2.53333C15.4835 1.85516 15.0564 1.26356 14.4811 0.843817C13.9057 0.424079 13.212 0.197903 12.4998 0.197903C11.7877 0.197903 11.0939 0.424079 10.5186 0.843817C9.94331 1.26356 9.51617 1.85516 9.29879 2.53333L7.9165 6.84167H3.36546C2.65686 6.84268 1.9667 7.06759 1.39356 7.48428C0.820426 7.90096 0.393627 8.48811 0.174128 9.16186C-0.0453715 9.83561 -0.046343 10.5615 0.171352 11.2358C0.389047 11.9102 0.814273 12.4984 1.38629 12.9167L5.09046 15.625L3.68213 19.9865C3.45453 20.6629 3.45165 21.3948 3.67391 22.073C3.89616 22.7512 4.33165 23.3395 4.91546 23.75C5.48926 24.1737 6.18462 24.4007 6.89791 24.3972C7.6112 24.3936 8.30425 24.1597 8.87379 23.7302L12.4998 21.0615L16.1269 23.7271C16.6997 24.1484 17.3913 24.3772 18.1023 24.3807C18.8133 24.3841 19.5071 24.1621 20.084 23.7464C20.6608 23.3307 21.091 22.7428 21.3126 22.0672C21.5343 21.3916 21.536 20.6631 21.3175 19.9865L19.9092 15.625L23.6175 12.9167C24.1961 12.5037 24.6263 11.9154 24.8445 11.2389C25.0627 10.5624 25.0573 9.8336 24.829 9.16042ZM22.3884 11.2344L18.0717 14.3896C17.8944 14.5189 17.7625 14.701 17.6948 14.9097C17.6271 15.1185 17.627 15.3433 17.6946 15.5521L19.3353 20.625C19.4183 20.8823 19.4176 21.1593 19.3332 21.4162C19.2489 21.673 19.0853 21.8965 18.8659 22.0546C18.6465 22.2126 18.3827 22.297 18.1123 22.2956C17.842 22.2942 17.579 22.2071 17.3613 22.0469L13.1165 18.9219C12.9377 18.7906 12.7217 18.7197 12.4998 18.7197C12.278 18.7197 12.062 18.7906 11.8832 18.9219L7.63838 22.0469C7.42075 22.2093 7.15706 22.2982 6.88553 22.3006C6.61399 22.3031 6.34873 22.219 6.1282 22.0606C5.90766 21.9021 5.74332 21.6776 5.659 21.4195C5.57467 21.1613 5.57475 20.8831 5.65921 20.625L7.30504 15.5521C7.37266 15.3433 7.37261 15.1185 7.3049 14.9097C7.23718 14.701 7.10526 14.5189 6.92796 14.3896L2.61129 11.2344C2.3939 11.0752 2.23237 10.8514 2.14977 10.5949C2.06718 10.3385 2.06774 10.0625 2.15138 9.80635C2.23502 9.55023 2.39746 9.32709 2.6155 9.16881C2.83354 9.01052 3.09603 8.92519 3.36546 8.925H8.67796C8.8985 8.92499 9.11334 8.85499 9.29155 8.72508C9.46976 8.59516 9.60214 8.41204 9.66963 8.20208L11.2842 3.16979C11.3671 2.91228 11.5295 2.6877 11.7482 2.52838C11.9668 2.36907 12.2304 2.28323 12.5009 2.28323C12.7714 2.28323 13.0349 2.36907 13.2536 2.52838C13.4722 2.6877 13.6347 2.91228 13.7175 3.16979L15.3321 8.20208C15.3996 8.41204 15.532 8.59516 15.7102 8.72508C15.8884 8.85499 16.1033 8.92499 16.3238 8.925H21.6363C21.9057 8.92519 22.1682 9.01052 22.3862 9.16881C22.6043 9.32709 22.7667 9.55023 22.8504 9.80635C22.934 10.0625 22.9346 10.3385 22.852 10.5949C22.7694 10.8514 22.6079 11.0752 22.3905 11.2344H22.3884Z" fill="black"/>
</g>
<defs>
<clipPath id="clip0_425_72">
<rect width="25" height="25" fill="white"/>
</clipPath>
</defs>
</svg>
