<svg width="36" height="30" viewBox="0 0 36 30" fill="none" xmlns="http://www.w3.org/2000/svg">
<path d="M32.3145 7.65599C32.3355 7.97249 32.3355 8.29049 32.3355 8.60999C32.3355 18.3705 24.9045 29.625 11.3205 29.625V29.619C7.308 29.625 3.378 28.476 0 26.3085C0.5835 26.379 1.17 26.4135 1.758 26.415C5.085 26.418 8.316 25.302 10.9305 23.247C7.77 23.187 4.998 21.126 4.0305 18.117C5.1375 18.33 6.2775 18.2865 7.365 17.991C3.918 17.295 1.44 14.2665 1.44 10.7505C1.44 10.719 1.44 10.6875 1.44 10.6575C2.4675 11.2305 3.6165 11.547 4.7925 11.5815C1.5465 9.41399 0.5445 5.09699 2.505 1.72199C6.255 6.33599 11.7885 9.14099 17.727 9.43949C17.1315 6.87449 17.946 4.18649 19.863 2.38199C22.8375 -0.415508 27.516 -0.271508 30.3135 2.70299C31.968 2.37749 33.5535 1.76999 35.004 0.910492C34.452 2.62049 33.2985 4.07249 31.7565 4.99649C33.222 4.82099 34.6515 4.42949 36 3.83249C35.0085 5.31599 33.7605 6.61049 32.3145 7.65599Z" fill="#5B38AD"/>
</svg>
