<svg width="26" height="25" viewBox="0 0 26 25" fill="none" xmlns="http://www.w3.org/2000/svg">
<g clip-path="url(#clip0_629_388)">
<path d="M22.174 4.46884C22.0772 4.37206 21.9623 4.29529 21.8359 4.24291C21.7094 4.19053 21.5739 4.16357 21.437 4.16357C21.3002 4.16357 21.1646 4.19053 21.0382 4.24291C20.9117 4.29529 20.7968 4.37206 20.7 4.46884C20.6033 4.56562 20.5265 4.68052 20.4741 4.80697C20.4217 4.93342 20.3948 5.06895 20.3948 5.20582C20.3948 5.34269 20.4217 5.47822 20.4741 5.60467C20.5265 5.73112 20.6033 5.84602 20.7 5.9428C22.4365 7.68332 23.4116 10.0415 23.4116 12.5001C23.4116 14.9587 22.4365 17.3169 20.7 19.0574C20.5046 19.2528 20.3948 19.5179 20.3948 19.7944C20.3948 20.0708 20.5046 20.3359 20.7 20.5313C20.8955 20.7268 21.1606 20.8366 21.437 20.8366C21.7134 20.8366 21.9785 20.7268 22.174 20.5313C24.3009 18.3996 25.4953 15.5113 25.4953 12.5001C25.4953 9.48884 24.3009 6.60054 22.174 4.46884V4.46884Z" fill="#5B38AD"/>
<path d="M19.3542 7.59471C19.2574 7.49758 19.1425 7.42047 19.0159 7.36778C18.8893 7.31509 18.7536 7.28784 18.6165 7.2876C18.4794 7.28736 18.3436 7.31412 18.2168 7.36637C18.09 7.41862 17.9748 7.49532 17.8777 7.5921C17.7805 7.68888 17.7034 7.80385 17.6507 7.93043C17.598 8.05701 17.5708 8.19273 17.5706 8.32985C17.5703 8.46696 17.5971 8.60277 17.6493 8.72954C17.7016 8.85631 17.7783 8.97154 17.8751 9.06867C18.7842 9.97917 19.2948 11.2132 19.2948 12.4999C19.2948 13.7866 18.7842 15.0207 17.8751 15.9312C17.7783 16.0283 17.7016 16.1435 17.6493 16.2703C17.5971 16.3971 17.5703 16.5329 17.5706 16.67C17.5708 16.8071 17.598 16.9428 17.6507 17.0694C17.7034 17.196 17.7805 17.3109 17.8777 17.4077C18.0738 17.6032 18.3396 17.7127 18.6165 17.7122C18.7536 17.712 18.8893 17.6847 19.0159 17.632C19.1425 17.5794 19.2574 17.5022 19.3542 17.4051C20.6535 16.1033 21.3832 14.3392 21.3832 12.4999C21.3832 10.6607 20.6535 8.89652 19.3542 7.59471V7.59471Z" fill="#5B38AD"/>
<path d="M14.8958 0.208368C11.7284 0.803438 8.91113 2.59363 7.02708 5.20837H5.70833C4.32767 5.21057 3.00419 5.76001 2.02792 6.73629C1.05164 7.71256 0.502204 9.03604 0.5 10.4167L0.5 14.5834C0.502204 15.964 1.05164 17.2875 2.02792 18.2638C3.00419 19.2401 4.32767 19.7895 5.70833 19.7917H7.02708C8.9115 22.406 11.7286 24.1961 14.8958 24.7917C14.9579 24.8038 15.0211 24.8098 15.0844 24.8094C15.3606 24.8094 15.6256 24.6997 15.8209 24.5043C16.0163 24.309 16.126 24.044 16.126 23.7677V1.23545C16.1264 1.08247 16.0931 0.931274 16.0285 0.79262C15.9638 0.653967 15.8694 0.531256 15.752 0.433209C15.6345 0.335162 15.4969 0.264187 15.349 0.225327C15.201 0.186467 15.0463 0.180677 14.8958 0.208368V0.208368ZM14.0417 22.4323C11.7441 21.6999 9.76863 20.1992 8.44687 18.1823C8.35244 18.037 8.22325 17.9176 8.071 17.8348C7.91876 17.7521 7.74828 17.7086 7.575 17.7084H5.70833C4.87953 17.7084 4.08468 17.3791 3.49862 16.7931C2.91257 16.207 2.58333 15.4122 2.58333 14.5834V10.4167C2.58333 9.5879 2.91257 8.79304 3.49862 8.20699C4.08468 7.62094 4.87953 7.2917 5.70833 7.2917H7.58333C7.75642 7.29168 7.92678 7.24852 8.07901 7.16614C8.23123 7.08375 8.36053 6.96473 8.45521 6.81983C9.77426 4.80341 11.7468 3.30206 14.0417 2.56774V22.4323Z" fill="#5B38AD"/>
</g>
<defs>
<clipPath id="clip0_629_388">
<rect width="25" height="25" fill="white" transform="translate(0.5)"/>
</clipPath>
</defs>
</svg>
